<?xml version="1.0"?>
<svg xmlns="http://www.w3.org/2000/svg" xmlns:xlink="http://www.w3.org/1999/xlink" version="1.1" id="Capa_1" x="0px" y="0px" viewBox="0 0 512 512" style="enable-background:new 0 0 512 512;" xml:space="preserve" width="512px" height="512px" class=""><g><g>
	<g>
		<polygon points="316,362 316,400.789 354.789,362   " data-original="#000000" class="active-path" data-old_color="#8b94a4" fill="#8b94a4"/>
	</g>
</g><g>
	<g>
		<path d="M136,150v272h150v-75c0-8.291,6.709-15,15-15h75V150H136z" data-original="#000000" class="active-path" data-old_color="#8b94a4" fill="#8b94a4"/>
	</g>
</g><g>
	<g>
		<path d="M421,60h-38.344C387.823,68.86,391,79.023,391,90v30c8.291,0,15,6.709,15,15v302c0,8.291-6.709,15-15,15H121    c-8.291,0-15-6.709-15-15V135c0-8.276,6.731-14.969,15-14.991V89.956c0-10.957,3.175-21.105,8.337-29.956H91    c-24.814,0-45,20.186-45,45v362c0,24.814,20.186,45,45,45h330c24.814,0,45-20.186,45-45V105C466,80.186,445.814,60,421,60z" data-original="#000000" class="active-path" data-old_color="#8b94a4" fill="#8b94a4"/>
	</g>
</g><g>
	<g>
		<path d="M331,60h-30V45c0-24.814-20.186-45-45-45c-24.814,0-45,20.186-45,45v15h-30c-16.569,0-30,13.431-30,30v15    c0,8.284,6.716,15,15,15h180c8.284,0,15-6.716,15-15V90C361,73.431,347.569,60,331,60z" data-original="#000000" class="active-path" data-old_color="#8b94a4" fill="#8b94a4"/>
	</g>
</g></g> </svg>
